<mxfile host="app.diagrams.net" modified="2023-12-13T20:13:58.675Z" agent="Mozilla/5.0 (Windows NT 10.0; Win64; x64) AppleWebKit/537.36 (KHTML, like Gecko) Chrome/119.0.0.0 Safari/537.36" version="21.6.9" etag="BMcCv_e0v1uWn5bVvi77" type="github">
  <diagram name="Page-1" id="Zb4J7hixRX40vuAThGVA">
    <mxGraphModel>
      <root>
        <mxCell id="0" />
        <mxCell id="1" parent="0" />
      </root>
    </mxGraphModel>
  </diagram>
</mxfile>
